# xmcd
#
# Track frame offsets:
#	150
#	15675
#	31800
#	47275
#	64650
#	80287
#	96062
#	108650
#
# Disc length: 1655 seconds
#
# Revision: 1
# Processed by: cddbd v1.4PL0 Copyright (c) Steve Scherf et al.
# Submitted via: audiograbber 1.80
#
DISCID=54067508
DTITLE=Various Artist - Country Sampler #1
DYEAR=1900
DGENRE=
TTITLE0=For You Love
TTITLE1=One Of Those Nights
TTITLE2=We Just Disagree
TTITLE3=Aces
TTITLE4=Liss Me In The Car
TTITLE5=Hellp Cruel World
TTITLE6=Love Light
TTITLE7=Soon
EXTD=
EXTT0=
EXTT1=
EXTT2=
EXTT3=
EXTT4=
EXTT5=
EXTT6=
EXTT7=
PLAYORDER=
